<?xml version="1.0" standalone="no"?><!DOCTYPE svg PUBLIC "-//W3C//DTD SVG 1.1//EN" "http://www.w3.org/Graphics/SVG/1.1/DTD/svg11.dtd"><svg t="1599378965863" class="icon" viewBox="0 0 1024 1024" version="1.1" xmlns="http://www.w3.org/2000/svg" p-id="17452" xmlns:xlink="http://www.w3.org/1999/xlink" width="200" height="200"><defs><style type="text/css"></style></defs><path d="M330.133333 355.733333c0.661333-1.024 0.661333-4.928 0-8.490666-0.704-3.754667-1.856-6.826667-2.709333-6.805334-2.389333 0-11.733333 10.538667-11.733333 12.906667 0 3.946667 12.394667 5.802667 14.442666 2.389333zM407.914667 702.229333c2.026667 0 0.170667-9.834667-2.389334-13.056a189.717333 189.717333 0 0 0-15.296-11.562666 205.226667 205.226667 0 0 0-14.101333-9.344c-0.512 0-2.218667 2.389333-3.584 5.141333l-2.709333 5.077333 18.368 11.882667c10.026667 6.592 18.858667 11.861333 19.712 11.861333zM447.317333 720.106667c6.613333-3.242667 15.104-11.925333 13.76-14.122667-0.512-0.832-4.586667-2.218667-9.002666-2.901333a147.050667 147.050667 0 0 1-20.032-5.098667 246.933333 246.933333 0 0 1-14.784-5.056c-4.245333-1.706667-3.904 1.216 1.514666 12.053333 8 16.32 16.469333 20.736 28.544 15.125334zM296.298667 410.112l10.517333-15.808c5.781333-8.490667 12.416-18.005333 14.805333-21.056 9.152-11.2-3.754667-6.805333-18.176 6.122667-8.704 7.658667-23.466667 26.176-23.466666 29.226666 0 0.853333 3.733333 1.536 8.170666 1.536h8.149334z" p-id="17453"></path><path d="M468.565333 743.530667v-13.077334c0-14.058667-1.706667-16.149333-7.829333-9.344-6.634667 7.488-20.394667 10.304-30.741333 6.464-2.56-0.896-7.488-4.245333-10.688-7.488-3.221333-3.072-16.32-11.904-28.885334-19.52a4243.84 4243.84 0 0 0-24.085333-14.634666c-0.682667-0.362667-1.514667-0.192-1.856 0.469333a151.232 151.232 0 0 1-5.248 9.194667l-4.608 7.978666 16.298667 10.538667c30.72 19.882667 49.770667 26.666667 79.488 28.373333l18.154666 1.045334zM468.032 753.173333h-11.2a375.978667 375.978667 0 0 1-23.104-1.493333 228.736 228.736 0 0 1-16.981333-2.709333c-2.730667-0.682667 4.224 4.096 15.445333 10.688 11.370667 6.634667 23.957333 14.272 27.861333 17.194666 4.074667 2.88 7.957333 5.248 8.832 5.248 1.536 0 1.856-13.248 0.341334-22.634666l-1.194667-6.293334zM642.816 670.485333c-1.322667-1.514667-18.304-2.368-21.376-0.981333-4.586667 1.877333-8.832 6.250667-20.736 22.037333-19.861333 26.517333-33.301333 34.858667-61.973333 38.421334l-16.661334 2.026666-0.512 13.418667-0.469333 13.44 8.128-1.216c4.437333-0.469333 13.930667-2.538667 20.906667-4.245333 10.517333-2.730667 13.418667-4.245333 17.002666-8.810667 9.344-12.416 25.792-28.394667 48.384-47.424 25.109333-20.928 29.184-24.981333 27.306667-26.666667z" p-id="17454"></path><path d="M536.170667 721.578667c22.058667-5.248 29.205333-11.541333 29.205333-25.813334 0-8.362667 0-8.362667-16.661333-2.88-14.741333 4.757333-16.618667 6.101333-23.253334 18.517334-6.805333 12.586667-5.248 14.101333 10.709334 10.176zM561.621333 719.210667c0.853333 0 6.805333-3.733333 13.44-8.32 12.202667-8.661333 21.738667-20.714667 25.813334-32.256 1.024-3.242667 1.365333-6.485333 0.682666-7.168-0.853333-0.853333-6.784 1.493333-13.226666 5.098666-12.266667 6.634667-13.248 8-15.296 20.885334-0.490667 3.584-3.562667 9.856-6.805334 14.101333-3.242667 4.288-5.248 7.658667-4.608 7.658667zM312.298667 400.234667l-5.461334 9.856h34.005334l6.933333-10.368c3.904-5.781333 6.954667-12.053333 6.954667-14.272 0-2.026667-2.368-6.954667-5.077334-10.688-7.509333-10.517333-11.413333-9.685333-22.592 4.224-5.077333 6.464-11.712 15.978667-14.762666 21.248zM603.776 336.362667c-16.32-10.176-18.026667-10.88-18.048-6.976 0 5.12 4.928 12.245333 11.370667 16.490666a199.445333 199.445333 0 0 1 48.085333 45.162667c12.778667 17.173333 12.778667 17.344 20.053333 17.344 3.904 0 7.125333-0.682667 7.125334-1.514667 0-3.562667-17.514667-27.52-27.690667-37.866666-15.082667-15.146667-22.890667-21.44-40.896-32.64zM570.453333 278.272c6.122667 1.344 11.2 2.218667 11.562667 1.856 0.362667-0.149333-6.954667-4.416-16.149333-9.344-9.173333-4.928-21.248-12.074667-26.816-15.978667-5.632-3.904-11.221333-7.637333-12.245334-8.341333-1.706667-1.024-2.218667 2.048-2.218666 13.952v15.445333h17.514666a183.936 183.936 0 0 1 28.352 2.410667z" p-id="17455"></path><path d="M527.488 287.296c-1.493333 1.344-1.493333 18.005333-0.149333 21.397333 0.661333 2.218667 2.218667 1.706667 8.149333-2.389333 14.613333-10.368 25.834667-9.493333 40.426667 2.901333 4.949333 4.245333 12.437333 9.664 16.682666 12.032 4.202667 2.389333 14.037333 8.32 22.037334 13.269334s15.466667 9.514667 16.810666 10.197333c1.877333 1.024 2.218667 0.341333 1.536-3.221333-1.365333-6.464 1.685333-4.928 9.344 5.077333 8.149333 10.538667 33.792 48.917333 37.546667 56.234667 2.730667 5.610667 3.072 5.610667 14.784 5.610666 10.858667 0 11.882667-0.362667 11.029333-3.050666-2.538667-6.805333-17.984-30.592-28.010666-43.157334-24.789333-31.104-71.552-63.189333-105.472-72.533333-12.437333-3.562667-42.176-5.12-44.714667-2.368z" p-id="17456"></path><path d="M534.805333 317.866667l-3.733333 4.736 6.634667 2.026666c3.562667 1.045333 8.149333 2.048 10.197333 2.048 2.048 0.149333 9.728 2.026667 16.981333 4.416 7.317333 2.218667 13.781333 3.584 14.442667 2.901334 1.728-1.706667-7.978667-20.885333-12.394667-24.64-7.338667-6.122667-24.149333-1.685333-32.128 8.512zM467.349333 304.938667c-11.221333 0.362667-30.4 9.002667-36.010666 16.149333-4.224 5.248-4.757333 15.616-1.002667 16.981333 2.858667 1.194667 17.152-1.877333 26.666667-5.610666 4.586667-1.856 6.805333-4.074667 8.170666-8.149334 1.002667-3.072 3.050667-6.656 4.416-7.637333a11.264 11.264 0 0 0 2.389334-6.976c-0.021333-4.245333-0.704-4.906667-4.629334-4.757333zM377.642667 322.944c21.781333-18.005333 27.882667-25.322667 25.813333-30.741333-1.344-3.562667-2.005333-3.392-12.224 1.344-10.368 4.778667-31.594667 21.930667-40.256 32.618666-6.272 7.658667-9.685333 17.322667-7.296 21.056 1.386667 2.218667 5.973333-1.002667 33.962667-24.277333z" p-id="17457"></path><path d="M350.314667 358.634667c0.533333 0.661333 5.461333 1.344 10.88 1.706666 12.928 0.874667 18.026667-2.389333 29.909333-19.52 21.568-30.741333 40.256-41.621333 73.728-42.645333l7.125333-0.170667v-27.2l-6.293333 0.170667c-7.509333 0-22.592 3.754667-31.104 7.637333-3.562667 1.514667-8.32 5.930667-11.712 10.88-6.122667 9.173333-23.957333 25.813333-50.282667 47.061334-18.688 15.104-24.106667 20.352-22.250666 22.08z" p-id="17458"></path><path d="M436.117333 309.205333c-1.365333-1.365333-14.421333 6.272-22.250666 12.736-12.394667 10.517333-23.765333 31.232-18.837334 34.304 0.853333 0.512 6.954667-2.048 13.76-5.781333l12.224-6.784v-7.637333c0-9.194667 3.072-15.637333 10.346667-21.76 2.858667-2.538667 5.098667-4.736 4.757333-5.077334zM362.538667 371.029333c-3.072 0-3.221333 0.149333-0.170667 3.370667 3.093333 3.413333 7.658667 4.608 7.658667 2.048 0-0.661333-0.853333-2.197333-2.026667-3.392a8.576 8.576 0 0 0-5.461333-2.026667zM602.24 718.890667c-10.389333 10.197333-12.074667 12.906667-9.685333 17.322666 1.856 3.413333 1.856 3.413333 8.981333-0.149333 10.538667-5.461333 28.544-19.050667 37.226667-28.394667 9.664-10.325333 13.781333-18.176 12.544-23.466666-0.661333-2.176-1.685333-4.032-2.368-4.032-1.706667 0-36.885333 29.226667-46.698667 38.72zM496.917333 434.197333l9.834667-9.834666c16.469333-16.832 16.32-16.469333 6.634667-26.325334a129.984 129.984 0 0 0-12.757334-11.754666l-4.416-3.2-12.565333 12.736-12.544 12.565333 12.885333 12.906667 12.928 12.906666z m-5.781333-27.52c2.88 0 3.562667-1.685333 3.072-7.296-0.512-4.245333 1.365333-3.562667 3.2 1.344 0.874667 2.368 3.413333 4.906667 5.461333 5.781334l3.882667 1.344-3.733333 1.194666c-2.069333 0.661333-4.437333 3.413333-5.44 6.122667-1.856 5.781333-4.416 6.976-3.050667 1.706667 0.512-2.218667-0.32-4.757333-2.709333-6.784-3.072-2.901333-3.072-3.413333-0.682667-3.413334zM824.917333 536.96c-0.469333-3.221333-1.685333-3.733333-9.002666-4.245333-5.290667-0.384-9.685333 0.362667-11.712 1.856-3.221333 2.368-3.221333 2.538667 0.32 4.416 1.898667 1.024 7.509333 1.898667 12.266666 1.898666 8.128 0 8.618667-0.362667 8.128-3.925333zM425.237333 556.48l22.101334-1.173333 0.469333-7.338667 0.533333-7.104h-49.429333v7.616c0 4.565333 0.853333 7.978667 2.218667 8.469333 1.024 0.576 12.053333 0.213333 24.106666-0.469333zM448.192 579.093333l0.021333-9.344h-23.616c-26.346667 0-25.664-0.32-25.664 13.056v5.632h49.258667v-9.344zM821.013333 581.632c-9.834667 0-11.029333 0.362667-11.029333 3.413333 0 3.029333 1.194667 3.392 11.029333 3.392 9.856 0 11.050667-0.384 11.050667-3.392 0-3.072-1.194667-3.413333-11.050667-3.413333zM828.672 562.282667c0-2.218667-1.216-4.608-2.730667-5.077334-5.44-2.069333-17.664-1.045333-18.666666 1.514667-2.218667 5.76 0.490667 7.616 11.2 7.616 9.685333 0.021333 10.197333-0.149333 10.197333-4.053333z" p-id="17459"></path><path d="M911.232 542.186667c-1.173333-0.682667-4.928 0.704-8.341333 2.901333-3.392 2.368-6.784 4.245333-7.786667 4.245333-2.048 0-3.754667-7.637333-10.368-48.576l-5.44-32.618666 8.490667-11.733334c4.586667-6.442667 11.882667-16.448 16.32-22.4 4.245333-5.930667 7.786667-11.2 7.786666-11.904 0-0.682667-7.125333-0.149333-15.594666 1.194667-12.906667 2.218667-37.717333 2.730667-137.770667 2.730667-119.744 0.192-122.154667 0.192-124.501333-3.221334-2.410667-3.050667-4.949333-3.413333-42.304-3.904l-39.765334-0.682666-26.645333-28.693334c-14.613333-15.786667-27.349333-28.693333-28.032-28.736-1.386667 0-37.717333 36.693333-49.941333 50.453334l-6.314667 7.317333h-28.352c-36.032 0-46.208 1.194667-47.402667 5.418667-0.682667 2.901333-3.904 3.072-67.264 2.901333-69.781333 0-165.418667-2.389333-176.64-4.266667-8.682667-1.344-8.341333-0.661333 10.005334 24.810667 8.661333 11.904 14.442667 21.589333 14.442666 23.957333 0 2.389333-2.218667 16.832-5.12 32.106667-9.152 50.944-8.490667 49.066667-16.981333 42.453333-2.389333-1.877333-5.610667-3.413333-7.125333-3.413333-2.88 0-29.909333 22.464-54.698667 45.354667-9.344 8.661333-11.370667 11.221333-9.344 12.394666 1.194667 0.874667 11.712 5.12 23.274667 9.344l21.077333 7.616h165.930667l37.034666 34.816c20.394667 19.2 37.888 34.816 39.061334 34.816 1.024 0 7.125333-8.810667 13.44-19.498666l11.392-19.562667h296.106666l14.464 19.050667c7.786667 10.538667 15.082667 19.370667 16.128 19.733333 1.152 0.170667 14.613333-15.125333 29.738667-34.304l27.84-35.029333h180.565333l15.808-5.781334c23.573333-8.469333 30.4-11.370667 30.4-12.885333-0.042667-1.386667-59.498667-54.037333-63.573333-56.405333z m-94.442667-91.349334v-6.784h28.864c15.957333 0 28.885333 0.682667 28.885334 1.536 0 0.853333-1.173333 2.346667-2.368 3.562667-6.101333 4.928-6.784 22.933333-1.706667 47.914667 1.024 4.736 0.853333 4.736-8.490667 4.736-11.541333 0-12.032-0.853333-13.76-21.226667-1.877333-24.64-0.661333-22.933333-17.173333-22.933333h-14.229333v-6.805334z m16.96 37.397334c6.293333 0 8.853333 0.682667 9.706667 2.709333 1.514667 3.904-1.706667 6.122667-10.346667 6.954667-7.829333 1.024-7.829333 1.024-7.829333-4.416-0.021333-5.248 0.128-5.248 8.469333-5.248z m-14.805333-17.685334c1.237333-3.072 13.952-3.733333 18.218667-1.024 2.197333 1.536 2.026667 2.048-0.704 4.245334-6.272 4.778667-19.52 2.389333-17.514667-3.221334z m-58.24-19.712v-6.805333h23.594667c13.077333 0 24.128 0.682667 24.64 1.344 0.490667 0.853333 2.026667 12.757333 3.562666 26.837333a497.066667 497.066667 0 0 0 3.392 27.370667c0.490667 1.685333-1.898667 2.197333-8.661333 2.197333-7.978667 0-9.514667-0.490667-10.858667-3.904-1.237333-3.072-5.12-31.936-5.12-38.378666 0-1.194667-5.44-1.877333-15.274666-1.877334h-15.296v-6.784z m9.194667 39.936c1.173333-3.221333 12.757333-3.413333 16.832-0.533333 4.416 3.413333 0.832 6.634667-8 7.658667-8.192 1.024-11.050667-1.365333-8.832-7.125334z m-3.562667-20.394666c1.514667-3.562667 13.589333-3.413333 16.618667 0.170666 3.072 3.733333-1.002667 6.122667-9.173334 5.098667-7.594667-0.853333-8.810667-1.685333-7.445333-5.269333z m-22.122667-9.685334c1.045333-0.661333 4.437333-1.344 7.296-1.344h5.290667l1.194667 12.245334c0.704 6.784 1.514667 16.469333 2.048 21.226666l1.024 9.002667h-13.589334l-1.216-14.613333c-0.682667-7.978667-1.856-16.96-2.730666-19.861334-1.002667-3.754667-0.832-5.632 0.682666-6.656z m-45.845333-1.322666c8 0 9.706667 3.221333 11.584 21.056 0.832 9.344 1.856 17.685333 2.026667 18.666666 0.170667 1.024-2.517333 2.048-5.930667 2.389334-5.952 0.512-6.272 0.170667-7.146667-5.098667-2.709333-15.808-4.416-28.202667-4.416-32.448-0.021333-3.754667 0.853333-4.586667 3.882667-4.565333z m-104.128 49.216c-51.136 0-52.672 0.170667-52.672 3.413333 0 4.928-5.226667 6.784-19.349333 6.784h-12.906667v-15.296h-0.042667v-15.274667h176.682667v30.570667h-39.082667v-10.197333h-52.629333z m-60.8-64.853334a3.626667 3.626667 0 0 1 2.538667-3.733333c1.706667-0.512 8.341333-0.512 14.762666-0.192 9.344 0.512 12.053333 1.365333 14.08 4.245333 2.24 3.242667 4.096 3.413333 31.082667 3.413334 26.709333 0 28.885333-0.170667 31.125333-3.413334 4.736-6.784 28.864-6.613333 30.570667 0 0.64 2.901333 2.346667 3.413333 12.053333 3.413334h11.2v22.101333h-12.394666c-8.853333 0-13.44 0.853333-16.469334 2.901333-5.610667 4.074667-25.962667 3.904-33.130666 0-7.466667-4.245333-39.061333-4.096-43.818667 0-4.608 4.245333-26.005333 4.074667-31.765333 0-3.072-2.218667-7.808-2.901333-18.176-2.901333h-14.122667v-21.909333l11.562667-0.512c9.557333-0.533333 11.413333-1.045333 10.901333-3.413334z m-54.528-52.842666c8.490667-8.981333 16.469333-16.490667 17.685333-16.448 2.389333 0 25.322667 24.277333 29.568 31.424 2.368 3.733333 1.856 4.565333-13.589333 21.056l-15.978667 17.152-16.469333-17.493334c-9.173333-9.514667-16.64-17.664-16.64-18.176s6.954667-8.362667 15.424-17.514666zM196.778667 603.712c-53.162667 0-96.832-0.661333-96.832-1.344 0-0.874667 5.952-7.829333 13.077333-15.466667l13.077333-14.122666 3.221334 4.437333 3.242666 4.416h58.389334l2.88-17.493333c3.754667-21.589333 3.754667-27.690667 0.170666-29.034667-1.514667-0.512-12.224-1.045333-23.765333-1.045333-24.298667 0-24.298667 0-21.077333-13.568l2.048-8.32 25.664-0.512 25.834666-0.554667 2.026667-11.029333c4.437333-24.64 4.437333-26.666667 0.149333-27.861334-2.176-0.512-14.101333-1.024-26.496-1.024-21.76 0-22.592-0.170667-23.957333-3.904a61.952 61.952 0 0 0-5.952-9.493333c-2.346667-3.221333-4.416-6.464-4.416-7.317333 0-0.661333 5.589333-1.514667 12.416-1.856 6.592-0.32 44.992-0.490667 85.098667-0.469334l72.874666 0.170667 3.925334 11.370667 3.904 11.562666-32.64 0.362667-32.618667 0.490667-3.733333 18.517333c-2.026667 10.346667-3.413333 19.2-2.88 20.032 0.533333 0.661333 11.904 1.344 25.493333 1.344h24.448v9.344c0 7.296-0.682667 9.472-3.221333 11.008-1.834667 0.896-12.885333 1.728-24.448 1.728-28.010667 0-27.52-0.341333-31.424 26.005333-2.538667 17.664-2.538667 20.224-0.362667 21.568 1.365333 0.853333 14.954667 1.706667 30.250667 1.706667 21.397333 0 27.861333 0.469333 28.522666 2.218667 0.512 1.344-0.661333 5.930667-2.538666 10.197333l-3.392 7.978667H196.778667z m239.658666-81.002667a1890.346667 1890.346667 0 0 1 48.234667 1.536c0.362667 0.362667 0.682667 18.005333 1.045333 39.552l0.661334 39.082667-58.944 0.490667-59.114667 0.362666-0.170667-11.370666c-0.149333-6.464-0.682667-13.418667-1.514666-15.829334-1.344-4.565333 0.853333-8.64-31.744 59.456-10.218667 21.205333-11.2 22.741333-13.418667 19.690667a12.309333 12.309333 0 0 1-2.389333-4.565333c0-0.853333-9.685333-8.981333-21.376-18.517334l-21.397334-16.96h13.76c12.394667 0 13.930667-0.341333 16.128-3.946666 1.344-2.026667 8.832-17.813333 16.789334-35.157334 27.861333-60.608 28.394667-61.802667 26.176-63.168-1.173333-0.682667-8-1.365333-15.296-1.365333h-13.248l0.490666-9.856 0.512-9.685333 33.642667-0.512 33.450667-0.341334v-17.002666h-50.453334l-3.733333-9.514667c-1.856-5.269333-3.562667-10.538667-3.562667-11.882667 0-4.416 8.149333-5.781333 33.301334-5.781333h24.789333l-0.362667-4.736c-0.170667-2.56-0.32-5.098667-0.170666-5.952 0.192-0.661333 10.538667-1.152 23.253333-1.152h23.104l-0.682667 5.76-0.661333 5.76 30.229333 1.194667 30.229334 1.194666v25.152H434.56v8.661334c0 8.341333 0.170667 8.490667 4.757333 8 3.242667-0.362667 4.778667-1.557333 5.12-4.096 0.512-4.053333 5.930667-5.76 19.050667-5.76 13.077333 0 18.496 1.706667 19.029333 5.76 0.32 2.709333 2.026667 3.733333 7.274667 4.416l6.784 0.874666 0.512 9.685334 0.490667 9.856H392.106667l-1.706667 4.416a33.493333 33.493333 0 0 0-1.706667 4.757333c0 0.298667 21.589333 1.002667 47.744 1.493333z m119.957334 53.674667c-10.197333 29.546667-8.682667 28.352-35.008 26.325333l-15.296-1.216 3.221333-4.074666c1.706667-2.197333 6.122667-11.541333 9.514667-20.522667 3.392-9.024 7.317333-18.538667 8.64-21.248 2.218667-4.586667 2.389333-4.586667 19.946666-4.586667h17.642667l-8.661333 25.322667z m63.338666 27.328h-45.824v-57.728h-64.576v-19.733333l31.936 0.170666h31.786667l0.490667-4.736 0.512-4.608h45.525333l0.490667 4.608 0.469333 4.736h65.429333v19.562667H619.733333v57.728z m82.538667 32.789333c-8.832 8.149333-16.661333 16.32-17.152 18.218667-2.709333 8.298667-4.906667 4.885333-35.498667-54.72-12.885333-24.981333-22.933333-46.186667-22.250666-47.232 0.490667-1.024 8.170667-1.685333 17.642666-1.685333h16.661334l20.181333 33.472 20.373333 33.642666 8 0.469334c4.437333 0.362667 7.978667 1.002667 7.978667 1.877333 0 0.682667-7.104 7.829333-15.936 15.957333z m56.661333-33.109333l-10.858666-0.490667-1.194667-5.952c-0.512-3.221333-2.026667-12.394667-3.050667-20.394666-3.733333-25.941333-7.317333-44.992-9.002666-47.530667-1.514667-2.56-0.512 43.114667 1.536 64.384l1.024 10.88-13.269334-1.045333c-14.442667-1.024-17.984-2.901333-14.442666-7.125334 1.706667-2.069333 1.898667-7.637333 1.045333-24.32-2.069333-39.744-2.538667-42.645333-7.786667-45.333333-5.12-2.581333-7.658667-10.368-4.778666-13.952 0.832-1.194667 6.293333-2.197333 12.032-2.538667l10.538666-0.512-0.469333-8.490666c-0.512-7.296-2.218667-17.664-8.341333-51.456l-1.045334-5.610667 10.858667 0.512 10.88 0.512 2.048 13.589333c4.906667 34.474667 7.104 48.576 8.149333 50.090667 0.490667 1.045333 4.565333 1.706667 9.002667 1.706667 9.834667 0 11.904 1.386667 13.226667 8 0.853333 4.245333 0.362667 5.76-2.538667 7.658666-4.416 2.709333-4.416 4.608-0.362667 30.762667a974.933333 974.933333 0 0 1 4.437334 28.352c1.365333 8.981333 1.194667 8.64 7.978666 11.050667 12.928 4.202667 4.437333 8.256-15.616 7.253333z m95.68-0.042667l-65.92-0.469333-3.050666-23.786667c-4.032-32.789333-4.757333-35.306667-9.173334-37.354666-4.757333-2.048-4.928-4.928-0.661333-10.88 1.877333-2.56 4.224-8.170667 5.418667-12.565334l1.877333-8h9.024c7.616 0 9.344 0.682667 11.733333 4.245334 2.197333 3.413333 4.224 4.245333 9.493334 4.245333 5.76 0 7.125333-0.661333 8.490666-4.245333 1.514667-3.904 2.538667-4.245333 11.52-4.245334 8.512 0 10.538667 0.682667 13.610667 4.245334 3.392 3.733333 4.906667 4.245333 16.32 4.245333 11.562667 0 12.565333 0.362667 13.589333 3.733333 2.368 9.322667 1.877333 9.706667-12.053333 10.197334-11.904 0.490667-13.248 0.832-13.248 3.904 0 3.050667 1.365333 3.541333 13.077333 4.245333 7.125333 0.490667 13.44 1.194667 13.930667 1.856 0.490667 0.490667 1.173333 3.562667 1.344 6.762667l0.469333 5.802666-12.245333 0.853334c-13.397333 0.832-15.808 2.005333-13.077333 6.421333 1.365333 2.218667 5.290667 3.093333 14.784 3.754667 7.168 0.469333 13.248 1.344 13.610666 1.685333 0.341333 0.512 1.194667 3.242667 1.685334 6.293333 1.024 5.098667 0.682667 5.610667-4.416 6.464-3.072 0.512-9.173333 1.045333-13.909334 1.216-6.293333 0.32-8.512 1.173333-8.512 3.050667 0 2.005333 3.541333 2.688 20.224 3.050667 17.173333 0.362667 20.714667 0 23.445334-2.368 1.856-1.877333 3.754667-2.368 4.608-1.344 5.248 6.101333 13.781333 17.344 13.781333 18.368-0.021333 0.448-29.568 0.810667-65.770667 0.618666z" p-id="17460"></path><path d="M512.298667 11.328C234.368 11.328 9.066667 236.629333 9.066667 514.56s225.301333 503.232 503.232 503.232c277.909333 0 503.232-225.322667 503.232-503.232S790.229333 11.328 512.298667 11.328z m-5.013334 249.621333l0.725334-84.416 3.904 11.050667c9.344 26.496 18.517333 41.6 33.642666 55.552 9.344 8.490667 13.930667 10.688 47.061334 23.594667 38.698667 14.954667 71.488 37.354667 101.738666 69.781333 8.469333 9.173333 15.466667 17.152 15.466667 17.834667 0 0.512-3.242667 2.218667-7.146667 3.413333-3.904 1.344-7.296 3.050667-7.637333 4.053333-0.192 0.853333 2.069333 3.221333 5.077333 5.269334 2.944 2.218667 7.658667 5.610667 10.197334 7.658666l4.778666 3.904 2.901334-3.904 3.050666-3.904 6.122667 10.688c9.493333 16.64 16.618667 31.445333 15.466667 32.618667-0.704 0.490667-22.4 1.002667-48.426667 1.002667h-47.232v-4.074667c0-4.757333-2.730667-6.122667-11.882667-6.122667-5.44 0-8.362667-1.514667-17.173333-8.981333-20.544-17.493333-29.888-23.594667-48.256-32.618667-18.688-9.194667-41.28-16.128-52.309333-16.128-11.413333 0.021333-10.581333 6.314667-10.069334-86.272z m-241.728 127.061334c0.853333 0.170667 3.562667 1.194667 5.952 2.538666s4.778667 2.389333 5.461334 2.56c0.490667 0 4.074667-5.610667 7.808-12.416 3.712-6.634667 10.346667-16.810667 14.592-22.250666l7.829333-10.197334-4.586667-4.928-4.778666-4.928 17.493333-16.810666c40.256-38.549333 94.954667-64.533333 150.016-70.997334 6.954667-0.853333 14.933333-1.344 17.664-1.173333l5.098667 0.170667 0.512 33.962666c0.32 18.688 0 40.256-0.512 47.744l-1.173334 13.909334-18.858666 3.733333c-37.205333 7.296-57.045333 17.664-90.368 46.549333-7.125333 6.272-11.392 8.661333-16.64 9.344-5.610667 0.874667-7.104 1.856-8 5.290667l-1.002667 4.245333-49.621333 0.512c-43.136 0.32-49.6 0-49.6-2.218666-0.021333-3.925333 10.688-24.64 12.714666-24.64z m8.512 268.394666c-2.389333-2.048-12.757333-19.370667-12.757333-21.610666 0-0.64 3.392 2.218667 7.637333 6.293333 5.632 5.44 7.658667 8.853333 7.658667 12.394667 0.021333 4.224-0.32 4.608-2.538667 2.922666z m213.376 189.376l-1.216 6.784-1.344-6.464c-2.389333-12.373333-19.690667-43.498667-30.592-55.210666-11.178667-12.053333-17.664-15.786667-44.48-25.770667-23.104-8.704-49.621333-22.464-67.456-35.2-17.152-12.010667-55.552-49.941333-55.552-54.677333 0-2.517333 1.685333-3.882667 6.272-5.077334l6.464-1.898666 13.589334 13.269333c20.544 20.053333 28.181333 26.154667 30.741333 23.936 1.152-0.853333 7.637333-11.221333 14.592-22.762667 11.050667-18.645333 12.885333-21.034667 17.472-21.546666 2.901333-0.362667 12.416-0.362667 21.290667-0.021334 13.589333 0.64 18.666667 1.685333 32.277333 6.954667 16.298667 6.485333 30.592 10.517333 47.722667 13.76l9.493333 1.856 1.024 16.469333c1.578667 22.613333 1.408 137.258667-0.298667 145.6z m187.648-134.08c-23.104 21.056-62.528 44.010667-92.757333 54.016-22.442667 7.488-49.6 12.885333-64.384 12.885334h-11.2V731.093333c0-53.994667-1.856-47.893333 14.976-50.112 11.904-1.536 36.352-9.002667 47.893333-14.442666 5.610667-2.666667 12.906667-5.248 16.149334-5.589334 3.2-0.32 19.349333-0.853333 35.818666-0.917333 28.885333-0.341333 29.909333-0.170667 33.301334 3.392 6.314667 6.826667 10.709333 15.637333 10.709333 21.248 0 5.802667 1.386667 6.933333 4.608 3.754667 2.517333-2.538667 4.074667-1.344 10.026667 7.168l4.906666 7.082666-10.048 9.024z m253.461334-87.573333h-177.344l-24.106667 30.058667c-32.106667 40.256-35.136 43.669333-37.226667 42.453333-1.002667-0.682667-9.130667-10.709333-18.304-22.421333l-16.490666-21.248h-286.72l-2.197334 3.754666c-1.386667 2.197333-7.338667 12.053333-13.12 22.058667-5.909333 10.218667-11.52 18.368-12.394666 18.368-1.365333 0-25.109333-21.568-67.946667-61.461333l-12.245333-11.413334-81.834667-0.170666H96.896l-23.765333-8.469334a1643.690667 1643.690667 0 0 1-30.08-11.072l-6.272-2.730666 3.882666-4.437334c2.218667-2.368 19.882667-17.962667 39.424-34.816 34.133333-29.376 35.349333-30.229333 38.912-27.648 7.957333 5.418667 8.149333 4.906667 17.322667-42.133333l4.202667-21.738667-15.786667-21.589333c-21.589333-29.717333-27.029333-37.717333-25.002667-37.717333 0.874667 0 10.368 1.536 21.248 3.413333 28.373333 4.778667 97.322667 7.125333 173.589334 5.781333 61.674667-1.194667 63.04-1.344 64.576-4.757333 1.344-3.221333 3.392-3.733333 19.349333-4.565333 9.856-0.682667 27.52-1.194667 39.594667-1.365334l21.568-0.149333 12.224-13.269333c6.784-7.125333 19.690667-20.544 28.544-29.738667l16.128-16.682667 14.464 14.976c8 8.128 21.077333 22.058667 29.205333 30.570667l14.805333 15.808h85.077334v8l74.389333 1.194667c89.002667 1.386667 161.237333-0.853333 189.888-5.781334 10.901333-1.856 20.394667-3.413333 21.248-3.413333 1.877333 0-7.488 14.101333-26.666667 40.085333l-13.930666 18.837334 1.664 8.341333c0.874667 4.586667 3.413333 18.666667 5.802666 31.232 5.781333 31.765333 4.778667 29.525333 12.224 25.621333l6.122667-3.178666 17.834667 15.594666c9.664 8.490667 27.008 23.466667 38.186666 33.301334 11.413333 9.856 20.736 18.517333 20.906667 19.562666 0 0.832-13.248 6.464-29.568 12.373334l-29.653333 10.581333z" p-id="17461"></path></svg>